<svg width="156" height="52" viewBox="0 0 156 52" fill="none" xmlns="http://www.w3.org/2000/svg">
<path d="M22.2295 30.0721C21.2379 28.8337 20.5672 27.4034 20.2522 25.8411C20.0099 24.6398 20.1055 23.3955 20.393 22.1541C20.525 21.5835 20.6954 21.0173 20.8925 20.4555C19.7868 22.5743 18.6907 24.6998 18.0371 26.9061C17.5509 28.541 17.3219 30.1914 17.545 31.807C17.837 33.9073 18.6122 35.8557 19.8305 37.5683C20.1692 38.0464 20.5361 38.5103 20.9192 38.9616C20.9192 38.9616 21.5002 39.5708 22.5104 40.2786C23.1937 40.1266 23.8666 39.9428 24.5091 39.719C26.9867 38.8534 29.2448 37.6973 31.2725 36.0143C32.4567 35.0316 33.4809 33.8643 34.3206 32.5733C35.768 30.4048 36.1467 28.5424 36.1467 28.5424C30.1334 37.6906 23.1099 31.0748 23.1099 31.0748C22.8016 30.7517 22.5059 30.4174 22.2295 30.0721Z" fill="#F5F5F5"/>
<path d="M22.8114 4.09338L22.819 4.01642L22.7631 4.08508L22.8114 4.09338Z" fill="url(#paint0_linear_76_24)"/>
<path d="M19.8751 6.12696C19.1147 6.32632 18.2758 6.45897 17.3494 6.60349C14.8593 6.99405 11.7614 7.48095 8.04925 9.65165C4.59941 11.6675 2.60436 14.826 2.70664 18.0254C3.19206 17.3851 3.70935 16.7722 4.25035 16.1956C7.7165 12.5071 12.2328 10.1141 15.7797 8.44217C15.9939 8.34138 16.2096 8.24133 16.4267 8.14128C17.6228 7.5899 18.7464 7.07113 19.6542 6.32039C19.7291 6.25814 19.8024 6.19366 19.8751 6.12696ZM2.32348 19.4528L2.23899 18.7843C1.77432 15.141 3.89907 11.4666 7.7832 9.19735C11.5814 6.97626 14.7348 6.48121 17.2679 6.08324C18.5715 5.87869 19.6972 5.70156 20.6384 5.32805L21.5277 4.97454L20.9445 5.73343C20.6621 6.10102 20.3405 6.436 19.9899 6.72651C19.0287 7.52024 17.8756 8.05383 16.655 8.61707C16.4319 8.7186 16.217 8.81865 16.0043 8.9187C12.4988 10.5706 8.03962 12.9325 4.63425 16.558C3.95021 17.285 3.30471 18.0743 2.71479 18.9036L2.32348 19.4528Z" fill="#F5F5F5"/>
<path d="M5.70146 25.2378C12.387 12.3234 22.3837 11.4022 22.8032 4.20827C22.6765 4.66479 22.0147 5.57709 21.859 5.8135C21.4796 6.38563 21.0223 6.89625 20.4932 7.33572C19.2696 8.34585 17.7629 8.96319 16.3408 9.63389C12.3247 11.5267 8.2768 13.8337 5.21011 17.0983C1.63576 20.9024 -1.13226 26.686 0.461114 31.9426C1.07253 33.9644 2.36056 36.1232 3.9532 37.6632C3.03497 33.8865 3.46184 29.5637 5.70146 25.2378Z" fill="#F5F5F5"/>
<path d="M22.7972 8.98541C21.5647 10.7129 19.7727 12.1625 17.8866 13.6877C14.568 16.3727 10.4415 19.7107 7.18286 26.0056C4.48598 31.2148 4.49117 36.7524 7.19546 41.1983C9.7456 45.3885 14.3353 47.8904 19.4748 47.8904C20.2559 47.8904 21.0563 47.8326 21.853 47.72C25.6119 47.1864 28.8342 45.8531 31.4481 43.7506C30.5706 43.9774 29.6732 44.0901 28.7675 44.0901C23.5531 44.0901 19.8646 40.2734 19.7097 40.1103L19.6542 40.0473C19.2139 39.53 18.8175 39.0224 18.4714 38.5347C17.0899 36.5938 16.2221 34.4068 15.8931 32.0352C15.6529 30.3033 15.8308 28.4713 16.4378 26.4318C17.1574 24.0046 18.3543 21.7131 19.5111 19.4958C21.3291 16.0148 23.0462 12.7273 22.8194 9.26629C22.8128 9.17143 22.8053 9.07805 22.7972 8.98541ZM19.4748 48.4166C14.15 48.4166 9.39209 45.8205 6.74561 41.4717C3.94275 36.8643 3.93163 31.1385 6.71448 25.7625C10.0243 19.3698 14.1982 15.994 17.5531 13.2816C19.6193 11.6097 21.5699 10.0319 22.7468 8.10795L23.1196 7.49802L23.2315 8.2043C23.2834 8.53408 23.3211 8.88018 23.3449 9.23146C23.5813 12.8399 21.8315 16.1912 19.9788 19.7396C18.833 21.934 17.648 24.2025 16.9425 26.5815C16.3585 28.5469 16.1858 30.307 16.4148 31.9634C16.7327 34.2489 17.5687 36.3574 18.9012 38.2294C19.2384 38.7052 19.6245 39.2003 20.0499 39.7005L20.0966 39.7524C20.2404 39.9036 23.7777 43.5639 28.7675 43.5639C30.0393 43.5639 31.2939 43.3275 32.4975 42.8613L33.7692 42.37L32.7725 43.3C29.9207 45.9621 26.2715 47.6259 21.9271 48.2417C21.106 48.3581 20.2804 48.4166 19.4748 48.4166Z" fill="#F5F5F5"/>
<path d="M41.1728 26.5392C41.1728 16.6432 33.85 8.45993 24.329 7.10371C24.681 8.56961 25.0427 11.2465 24.2453 14.5911C23.0158 19.7418 20.3819 26.0634 25.7668 30.2773C31.1516 34.492 36.8581 26.2094 37.2968 22.346C37.2968 22.346 39.9315 38.3257 26.937 40.9589C26.937 40.9589 30.0644 41.946 33.6995 41.9497C38.2492 38.3531 41.1728 32.7897 41.1728 26.5392Z" fill="#F5F5F5"/>
<path d="M48.185 38.6161L49.1211 38.3719C50.1522 38.0735 50.8441 37.68 51.1969 37.1916C51.5496 36.7032 51.726 35.8349 51.726 34.5867V16.1895C51.726 14.9413 51.5496 14.073 51.1969 13.5846C50.8441 13.0962 50.1522 12.7028 49.1211 12.4043L48.185 12.1601L48.6734 10.7762H57.587L58.1162 11.4274L57.587 12.1601C56.9087 13.0555 56.4338 14.0052 56.1625 15.0092C55.8911 16.0132 55.7555 17.3292 55.7555 18.9572V34.8716C55.7555 36.0384 55.9183 36.8524 56.2439 37.3137C56.5695 37.775 57.2343 38.1549 58.2383 38.4533L59.093 38.6975L58.6453 40H48.6734L48.185 38.6161ZM72.2616 37.9242C73.9439 37.9242 75.2192 36.9609 76.0875 35.0344C76.983 33.1079 77.4307 30.7743 77.4307 28.0337C77.4307 26.7313 77.2814 25.4695 76.983 24.2485C76.6845 23.0274 76.2368 21.942 75.6398 20.9923L75.2328 20.3411L75.7212 19.812L80.5647 19.2422C80.7004 20.9245 80.7682 22.3626 80.7682 23.5565C80.7682 27.1654 80.3612 30.2587 79.5472 32.8365C78.7331 35.3871 77.6342 37.3137 76.2503 38.6161C74.8936 39.9186 73.4148 40.5698 71.8139 40.5698C70.4029 40.5698 69.2632 40.312 68.3949 39.7965C67.5537 39.2538 66.8754 38.3991 66.3598 37.2323C65.8443 36.0384 65.4373 34.3832 65.1388 32.2667L63.877 23.6379C63.8228 23.2852 63.7414 23.0545 63.6328 22.946C63.5243 22.8103 63.3343 22.7425 63.063 22.7425H61.2721L60.9058 21.6843C61.6113 20.9788 62.4525 20.3954 63.4293 19.9341C64.4061 19.4728 65.2745 19.2422 66.0342 19.2422C66.7668 19.2422 67.201 19.6763 67.3367 20.5446L69.1682 33.2435C69.4125 34.9259 69.7652 36.1333 70.2265 36.866C70.6878 37.5715 71.3661 37.9242 72.2616 37.9242ZM85.2346 29.906C85.2346 27.7352 85.628 25.8494 86.4149 24.2485C87.229 22.6475 88.3822 21.4129 89.8746 20.5446C91.3941 19.6763 93.1578 19.2422 95.1658 19.2422C97.1737 19.2422 98.9239 19.6763 100.416 20.5446C101.909 21.4129 103.062 22.6475 103.876 24.2485C104.69 25.8494 105.097 27.7352 105.097 29.906C105.097 32.0496 104.69 33.9355 103.876 35.5635C103.062 37.1645 101.909 38.3991 100.416 39.2674C98.9239 40.1357 97.1737 40.5698 95.1658 40.5698C93.1578 40.5698 91.3941 40.1357 89.8746 39.2674C88.3822 38.3991 87.229 37.1645 86.4149 35.5635C85.628 33.9355 85.2346 32.0496 85.2346 29.906ZM100.823 30.0281C100.823 28.7528 100.647 27.4503 100.294 26.1207C99.9414 24.7911 99.3445 23.6651 98.5033 22.7425C97.6893 21.8199 96.6175 21.3586 95.2879 21.3586C94.1482 21.3586 93.1307 21.725 92.2353 22.4576C91.367 23.1631 90.6886 24.1671 90.2002 25.4695C89.7118 26.772 89.4676 28.2644 89.4676 29.9467C89.4676 32.5245 89.9695 34.5731 90.9735 36.0926C91.9775 37.6122 93.3342 38.3719 95.0437 38.3719C96.1562 38.3719 97.1466 38.0328 98.0149 37.3544C98.9103 36.6489 99.6023 35.6721 100.091 34.4239C100.579 33.1486 100.823 31.6833 100.823 30.0281ZM115.237 33.4877C115.237 34.7631 115.332 35.7806 115.522 36.5404C115.712 37.3001 116.051 38.0328 116.539 38.7382L117.028 39.3895L116.539 40H109.416L108.969 38.7382L109.823 38.5347C110.502 38.3719 110.95 38.087 111.167 37.68C111.411 37.2459 111.533 36.5132 111.533 35.4821V24.045C111.533 23.7193 111.465 23.4887 111.329 23.353C111.221 23.2174 111.017 23.1495 110.719 23.1495H108.928L108.562 22.0913C109.349 21.3858 110.244 20.8024 111.248 20.3411C112.279 19.8798 113.175 19.6492 113.934 19.6492C114.314 19.6492 114.626 19.7713 114.87 20.0155C115.115 20.2597 115.237 20.5717 115.237 20.9516V25.3067C115.942 23.543 117.001 22.0913 118.412 20.9516C119.823 19.812 121.301 19.2422 122.848 19.2422C124.747 19.2422 126.131 19.8255 127 20.9923C127.868 22.1591 128.302 24.0178 128.302 26.5685V36.4183C128.302 37.3408 128.709 37.8021 129.523 37.8021C130.147 37.8021 130.826 37.5172 131.558 36.9474L132.331 38.0056C131.626 38.7925 130.866 39.4166 130.052 39.8779C129.238 40.3392 128.478 40.5698 127.773 40.5698C126.66 40.5698 125.86 40.2306 125.372 39.5523C124.883 38.8739 124.639 37.775 124.639 36.2554V26.5685C124.639 23.8007 123.472 22.4169 121.139 22.4169C119.972 22.4169 118.941 22.8782 118.045 23.8007C117.177 24.7233 116.485 26.0258 115.969 27.7081C115.481 29.3904 115.237 31.317 115.237 33.4877ZM152.379 36.9474C151.375 38.1142 150.181 39.0096 148.798 39.6337C147.414 40.2578 145.921 40.5698 144.32 40.5698C142.448 40.5698 140.806 40.1357 139.395 39.2674C137.984 38.3991 136.886 37.178 136.099 35.6042C135.339 34.0304 134.959 32.2124 134.959 30.1502C134.959 27.9794 135.393 26.08 136.261 24.452C137.13 22.7968 138.351 21.5214 139.925 20.626C141.526 19.7034 143.384 19.2422 145.501 19.2422C146.993 19.2422 148.255 19.5271 149.286 20.0969C150.344 20.6396 151.131 21.3722 151.647 22.2948C152.162 23.1902 152.42 24.1671 152.42 25.2253C152.42 26.3649 152.108 27.4639 151.484 28.5221C150.887 29.5804 150.005 30.4487 148.838 31.127C147.671 31.7783 146.274 32.1039 144.646 32.1039C143.778 32.1039 142.814 31.9411 141.756 31.6155C140.698 31.2898 140.169 30.815 140.169 30.1909C140.169 29.9738 140.223 29.7703 140.332 29.5804C140.467 29.3904 140.617 29.2955 140.779 29.2955C140.861 29.2955 141.132 29.3904 141.593 29.5804C142.055 29.7432 142.652 29.8246 143.384 29.8246C145.012 29.8246 146.274 29.3633 147.169 28.4407C148.092 27.5182 148.553 26.4328 148.553 25.1846C148.553 24.1264 148.214 23.2174 147.536 22.4576C146.857 21.6707 145.908 21.2772 144.687 21.2772C142.95 21.2772 141.593 22.0506 140.617 23.5972C139.64 25.1168 139.151 27.3011 139.151 30.1502C139.151 32.5652 139.667 34.4646 140.698 35.8484C141.729 37.2052 143.221 37.8835 145.175 37.8835C147.563 37.8835 149.544 37.1102 151.118 35.5635C151.226 35.455 151.348 35.4007 151.484 35.4007C151.701 35.4007 151.932 35.5364 152.176 35.8077C152.42 36.0519 152.542 36.3097 152.542 36.5811C152.542 36.7167 152.488 36.8388 152.379 36.9474Z" fill="#F5F5F5"/>
<defs>
<linearGradient id="paint0_linear_76_24" x1="22.7631" y1="4.0549" x2="22.8195" y2="4.0549" gradientUnits="userSpaceOnUse">
<stop stop-color="#5FC8A5"/>
<stop offset="1" stop-color="#3771BE"/>
</linearGradient>
</defs>
</svg>
